<svg xmlns="http://www.w3.org/2000/svg" width="1112.907" height="600" viewBox="0 0 370.969 200">
  <metadata><?xpacket begin="﻿" id="W5M0MpCehiHzreSzNTczkc9d"?>
<x:xmpmeta xmlns:x="adobe:ns:meta/" x:xmptk="Adobe XMP Core 5.6-c140 79.160451, 2017/05/06-01:08:21        ">
   <rdf:RDF xmlns:rdf="http://www.w3.org/1999/02/22-rdf-syntax-ns#">
      <rdf:Description rdf:about=""/>
   </rdf:RDF>
</x:xmpmeta>
                                                                                                    
                                                                                                    
                                                                                                    
                                                                                                    
                                                                                                    
                                                                                                    
                                                                                                    
                                                                                                    
                                                                                                    
                                                                                                    
                                                                                                    
                                                                                                    
                                                                                                    
                                                                                                    
                                                                                                    
                                                                                                    
                                                                                                    
                                                                                                    
                                                                                                    
                                                                                                    
                           
<?xpacket end="w"?></metadata>
<defs>
    <style>
      .cls-1 {
        fill: #c63131;
        fill-rule: evenodd;
      }
    </style>
  </defs>
  <path class="cls-1" d="M1118.43,832.733v0c-10.22-10.845-24.74-16.822-40.88-16.822h-36.47V797.231a10.357,10.357,0,0,0-10.45-10.237H850.165a10.357,10.357,0,0,0-10.452,10.237v29.448h-33.76a10.237,10.237,0,1,0,0,20.469h44.286a10.358,10.358,0,0,0,10.453-10.236V807.464H1020.25V943.447H936.328a31.983,31.983,0,0,0-58.113.055,10.547,10.547,0,0,0-1.084-.055H860.692V913.921a10.356,10.356,0,0,0-10.453-10.233H805.953a10.239,10.239,0,1,0,0,20.473h33.76v29.444a10.356,10.356,0,0,0,10.452,10.235h26.38c3.6,13.489,16.33,23.163,30.713,23.163a31.5,31.5,0,0,0,30.7-23.163h106.1a31.933,31.933,0,0,0,61.41,0h19.08A10.356,10.356,0,0,0,1135,953.605V880.064C1135,860.625,1129.27,844.257,1118.43,832.733Zm-4.33,47.406v63.308h-10.31a32.13,32.13,0,0,0-29.03-18.59,31.648,31.648,0,0,0-29.03,18.59h-4.58V836.378h36.48C1100.47,836.378,1114.1,852.737,1114.1,880.139Zm-28.47,75.815a10.867,10.867,0,1,1-10.87-10.628A10.861,10.861,0,0,1,1085.63,955.954Zm-167.508.013a10.866,10.866,0,1,1-10.864-10.641A10.766,10.766,0,0,1,918.122,955.967Zm1.525-64.917a10.123,10.123,0,0,0,.017,14.484,10.655,10.655,0,0,0,7.4,2.983,10.786,10.786,0,0,0,7.4-2.983l23.35-22.869,0.163-.194c0.03-.034.065-0.064,0.1-0.1a3.222,3.222,0,0,0,.444-0.513l0.109-.174c0.061-.093.118-0.177,0.17-0.276l0.228-.226,0.359-.687a2.4,2.4,0,0,0,.2-0.327l0.25-.482a1.885,1.885,0,0,0,.245-0.606c0.029-.084.049-0.161,0.067-0.234a1.983,1.983,0,0,0,.1-0.265l0.024-.051a2.121,2.121,0,0,0,.216-0.944,2.154,2.154,0,0,0,.078-0.515c0,0.031,0,.058,0,0.062a2.846,2.846,0,0,0,.07-0.442,1.8,1.8,0,0,0,.079-0.429,8.415,8.415,0,0,0,0-1.962,1.886,1.886,0,0,0-.114-0.648,1.523,1.523,0,0,0-.036-0.15,2.16,2.16,0,0,0-.08-0.559,2.476,2.476,0,0,0-.071-0.423v-0.24l-0.125-.244a2.107,2.107,0,0,0-.156-0.391,2.409,2.409,0,0,0-.171-0.462l-0.37-.793a3.408,3.408,0,0,0-.234-0.394l-0.219-.424a2.442,2.442,0,0,0-.433-0.6c-0.034-.049-0.07-0.1-0.112-0.17l-0.074-.115a3.255,3.255,0,0,0-.441-0.515,1.042,1.042,0,0,1-.088-0.087L935.6,846.118a10.628,10.628,0,0,0-14.8,0,10.113,10.113,0,0,0,0,14.492l4.292,4.2H774.472a10.24,10.24,0,1,0,0,20.475H925.164Z" transform="translate(-764.031 -787)"/>
</svg>
