<svg xmlns="http://www.w3.org/2000/svg" width="887.907" height="600" viewBox="0 0 295.969 200">
  <metadata><?xpacket begin="﻿" id="W5M0MpCehiHzreSzNTczkc9d"?>
<x:xmpmeta xmlns:x="adobe:ns:meta/" x:xmptk="Adobe XMP Core 5.6-c140 79.160451, 2017/05/06-01:08:21        ">
   <rdf:RDF xmlns:rdf="http://www.w3.org/1999/02/22-rdf-syntax-ns#">
      <rdf:Description rdf:about=""/>
   </rdf:RDF>
</x:xmpmeta>
                                                                                                    
                                                                                                    
                                                                                                    
                                                                                                    
                                                                                                    
                                                                                                    
                                                                                                    
                                                                                                    
                                                                                                    
                                                                                                    
                                                                                                    
                                                                                                    
                                                                                                    
                                                                                                    
                                                                                                    
                                                                                                    
                                                                                                    
                                                                                                    
                                                                                                    
                                                                                                    
                           
<?xpacket end="w"?></metadata>
<defs>
    <style>
      .cls-1 {
        fill: #c63131;
        fill-rule: evenodd;
      }
    </style>
  </defs>
  <path class="cls-1" d="M613.6,764.992H388.388a35.6,35.6,0,0,0-35.379,35.74V929.263A35.6,35.6,0,0,0,388.388,965H613.6a35.6,35.6,0,0,0,35.378-35.74V800.732a35.6,35.6,0,0,0-35.378-35.74h0Zm15.8,164.271a15.9,15.9,0,0,1-15.8,15.966H388.388a15.907,15.907,0,0,1-15.8-15.966V843.13H629.4v86.133h0Zm0-114.348-256.818.021v-14.2a15.9,15.9,0,0,1,15.8-15.966H613.6a15.9,15.9,0,0,1,15.8,15.966v14.183Zm0,0M396.88,926.886h83.189a3.494,3.494,0,0,0,3.473-3.509V912.7a3.494,3.494,0,0,0-3.473-3.514H396.88a3.494,3.494,0,0,0-3.474,3.514v10.681a3.493,3.493,0,0,0,3.474,3.509h0Zm0,0" transform="translate(-353 -765)"/>
</svg>
