<svg xmlns="http://www.w3.org/2000/svg" width="449.34" height="600" viewBox="0 0 149.78 200">
  <metadata><?xpacket begin="﻿" id="W5M0MpCehiHzreSzNTczkc9d"?>
<x:xmpmeta xmlns:x="adobe:ns:meta/" x:xmptk="Adobe XMP Core 5.6-c140 79.160451, 2017/05/06-01:08:21        ">
   <rdf:RDF xmlns:rdf="http://www.w3.org/1999/02/22-rdf-syntax-ns#">
      <rdf:Description rdf:about=""/>
   </rdf:RDF>
</x:xmpmeta>
                                                                                                    
                                                                                                    
                                                                                                    
                                                                                                    
                                                                                                    
                                                                                                    
                                                                                                    
                                                                                                    
                                                                                                    
                                                                                                    
                                                                                                    
                                                                                                    
                                                                                                    
                                                                                                    
                                                                                                    
                                                                                                    
                                                                                                    
                                                                                                    
                                                                                                    
                                                                                                    
                           
<?xpacket end="w"?></metadata>
<defs>
    <style>
      .cls-1 {
        fill: #c63131;
        fill-rule: evenodd;
      }
    </style>
  </defs>
  <path class="cls-1" d="M1751,638.82a29.444,29.444,0,1,0-29.3-29.441A29.347,29.347,0,0,0,1751,638.82Zm0-45.5a16.061,16.061,0,1,1-15.98,16.063A15.962,15.962,0,0,1,1751,593.316Zm79.03,111.977-31.3-51.972a20.633,20.633,0,0,0,5.99-4.906,17.279,17.279,0,0,0,.89-18.962,2.931,2.931,0,0,1-.22-2.675,3.9,3.9,0,0,1,2-2.232,16.844,16.844,0,0,0,10.21-15.613c0-6.918-4-12.715-10.44-15.617a3.339,3.339,0,0,1-1.77-1.784,3.21,3.21,0,0,1,.22-2.9,16.841,16.841,0,0,0-17.98-25.2,3.2,3.2,0,0,1-2.89-.671,2.738,2.738,0,0,1-1.33-2.454,17.049,17.049,0,0,0-11.54-14.5,16.658,16.658,0,0,0-17.76,4.907v0.223a3.055,3.055,0,0,1-2.66,1.115,3.444,3.444,0,0,1-2.89-1.115,16.264,16.264,0,0,0-17.76-4.9,16.772,16.772,0,0,0-11.76,14.5,3.585,3.585,0,0,1-1.55,2.452,3.5,3.5,0,0,1-2.89.67,16.423,16.423,0,0,0-17.09,6.246,17.274,17.274,0,0,0-.89,18.959,2.934,2.934,0,0,1,.22,2.676,3.919,3.919,0,0,1-1.99,2.231,16.836,16.836,0,0,0-10.22,15.616c0,6.913,4,12.713,10.44,15.612a3.345,3.345,0,0,1,1.77,1.787,3.207,3.207,0,0,1-.22,2.9,16.844,16.844,0,0,0,17.98,25.206h0.22l-32.63,53.088a6.679,6.679,0,0,0,7.11,10.038l28.85-6.691,7.55,28.775a6.685,6.685,0,0,0,5.55,4.907h0.89a6.679,6.679,0,0,0,5.77-3.347l18.87-31.674,17.53,29.221a6.431,6.431,0,0,0,5.77,3.122h0.89a6.678,6.678,0,0,0,5.55-4.907l7.55-28.775,28.85,6.691a6.43,6.43,0,0,0,6.88-2.675A6.789,6.789,0,0,0,1830.03,705.293Zm-118.32-63.569a3.591,3.591,0,0,1-3.55-1.343,3.258,3.258,0,0,1,0-3.792,16.449,16.449,0,0,0,1.34-14.053,15.979,15.979,0,0,0-9.11-9.814,3.368,3.368,0,0,1-2.22-3.124,3.619,3.619,0,0,1,2.22-3.343,17.443,17.443,0,0,0,9.33-10.484,16.193,16.193,0,0,0-1.56-13.606,3.384,3.384,0,0,1,.23-4.016,3.163,3.163,0,0,1,3.55-1.114,17.227,17.227,0,0,0,13.54-2.677,17.527,17.527,0,0,0,7.1-12.045,3.748,3.748,0,0,1,2.44-3.123,3.428,3.428,0,0,1,3.55.891,16.71,16.71,0,0,0,25.31,0,3.532,3.532,0,0,1,3.77-1.114,3.424,3.424,0,0,1,2.44,3.123,17.235,17.235,0,0,0,6.89,12.042,16.678,16.678,0,0,0,13.76,2.677,3.582,3.582,0,0,1,3.55,1.34,3.261,3.261,0,0,1,0,3.793A16.448,16.448,0,0,0,1792.96,596a15.93,15.93,0,0,0,9.1,9.813,3.357,3.357,0,0,1,2.22,3.125,3.605,3.605,0,0,1-2.22,3.345,17.39,17.39,0,0,0-9.32,10.484,16.193,16.193,0,0,0,1.55,13.606,3.4,3.4,0,0,1-.22,4.013,3.6,3.6,0,0,1-3.55,1.343,17.206,17.206,0,0,0-13.54,2.675,17.5,17.5,0,0,0-7.11,12.045,3.734,3.734,0,0,1-2.44,3.122,3.428,3.428,0,0,1-3.55-.891,16.211,16.211,0,0,0-12.65-5.8,16.963,16.963,0,0,0-12.66,5.8,3.6,3.6,0,0,1-3.77,1.115,3.425,3.425,0,0,1-2.44-3.122,17.263,17.263,0,0,0-6.88-12.046A16.044,16.044,0,0,0,1711.71,641.724Zm22.87,79.41-5.11-19.632a6.794,6.794,0,0,0-7.99-4.909l-19.53,4.686,20.86-34.351a15.831,15.831,0,0,0,7.55,5.13,12.5,12.5,0,0,0,4,.669l14.42,24.093Zm56.16-27a6.616,6.616,0,0,0-7.99,4.909l-5.11,19.63-30.19-50.411a5.025,5.025,0,0,0,1.11-1.117,3.064,3.064,0,0,1,2.67-1.114,3.846,3.846,0,0,1,2.66,1.114,16.424,16.424,0,0,0,12.43,5.8,13,13,0,0,0,5.11-.893,16.77,16.77,0,0,0,11.76-14.5,2.787,2.787,0,0,1,1.33-2.231l25.75,43.27Z" transform="translate(-1681.22 -545)"/>
</svg>
