<svg xmlns="http://www.w3.org/2000/svg" width="405" height="600" viewBox="0 0 135 200">
  <metadata><?xpacket begin="﻿" id="W5M0MpCehiHzreSzNTczkc9d"?>
<x:xmpmeta xmlns:x="adobe:ns:meta/" x:xmptk="Adobe XMP Core 5.6-c140 79.160451, 2017/05/06-01:08:21        ">
   <rdf:RDF xmlns:rdf="http://www.w3.org/1999/02/22-rdf-syntax-ns#">
      <rdf:Description rdf:about=""/>
   </rdf:RDF>
</x:xmpmeta>
                                                                                                    
                                                                                                    
                                                                                                    
                                                                                                    
                                                                                                    
                                                                                                    
                                                                                                    
                                                                                                    
                                                                                                    
                                                                                                    
                                                                                                    
                                                                                                    
                                                                                                    
                                                                                                    
                                                                                                    
                                                                                                    
                                                                                                    
                                                                                                    
                                                                                                    
                                                                                                    
                           
<?xpacket end="w"?></metadata>
<defs>
    <style>
      .cls-1 {
        fill: #c63131;
        fill-rule: evenodd;
      }
    </style>
  </defs>
  <path class="cls-1" d="M241.2,813.787h-8.8V786.514c0-28.4-22.382-51.517-49.893-51.517s-49.892,23.112-49.892,51.517v27.273H123.8a8.948,8.948,0,0,0-8.8,9.088V925.91a8.95,8.95,0,0,0,8.8,9.09H241.2a8.95,8.95,0,0,0,8.8-9.09V822.875a8.947,8.947,0,0,0-8.8-9.088h0Zm-90.98-27.273c0-18.379,14.482-33.332,32.283-33.332s32.284,14.953,32.284,33.332v27.273H150.218V786.514Zm82.176,130.3H132.609V831.969h99.785v84.847Zm0,0M201.2,855.087a8.605,8.605,0,0,0-12.45,0l-6.248,6.451-6.248-6.451a8.605,8.605,0,0,0-12.45,0,9.3,9.3,0,0,0,0,12.853l6.248,6.452-6.248,6.453a9.3,9.3,0,0,0,0,12.853,8.6,8.6,0,0,0,12.45,0l6.248-6.449,6.248,6.449a8.6,8.6,0,0,0,12.45,0,9.3,9.3,0,0,0,0-12.853l-6.248-6.453,6.248-6.452a9.3,9.3,0,0,0,0-12.853h0Zm0,0" transform="translate(-115 -735)"/>
</svg>
