<svg xmlns="http://www.w3.org/2000/svg" width="898.968" height="570" viewBox="0 0 299.656 190">
  <metadata><?xpacket begin="﻿" id="W5M0MpCehiHzreSzNTczkc9d"?>
<x:xmpmeta xmlns:x="adobe:ns:meta/" x:xmptk="Adobe XMP Core 5.6-c140 79.160451, 2017/05/06-01:08:21        ">
   <rdf:RDF xmlns:rdf="http://www.w3.org/1999/02/22-rdf-syntax-ns#">
      <rdf:Description rdf:about=""/>
   </rdf:RDF>
</x:xmpmeta>
                                                                                                    
                                                                                                    
                                                                                                    
                                                                                                    
                                                                                                    
                                                                                                    
                                                                                                    
                                                                                                    
                                                                                                    
                                                                                                    
                                                                                                    
                                                                                                    
                                                                                                    
                                                                                                    
                                                                                                    
                                                                                                    
                                                                                                    
                                                                                                    
                                                                                                    
                                                                                                    
                           
<?xpacket end="w"?></metadata>
<defs>
    <style>
      .cls-1 {
        fill: #c63131;
        fill-rule: evenodd;
      }
    </style>
  </defs>
  <path class="cls-1" d="M659.683,674.362l-24.6-3.577-11-22.625a6.52,6.52,0,0,0-5.71-3.733h0a6.512,6.512,0,0,0-5.708,3.739L601.69,670.708,577.1,674.32a6.455,6.455,0,0,0-3.535,10.97l17.79,17.489-4.194,24.705a6.409,6.409,0,0,0,5.2,7.406,6.33,6.33,0,0,0,4.039-.644L618.376,722.6l22.011,11.643a6.341,6.341,0,0,0,8.6-2.695,6.455,6.455,0,0,0,.639-4.065l-4.193-24.7L663.22,685.3a6.454,6.454,0,0,0,.112-9.074,6.354,6.354,0,0,0-3.649-1.867v0Zm-25.537,21.594a6.44,6.44,0,0,0-1.83,5.674l2.584,15.229-13.566-7.18a6.318,6.318,0,0,0-5.921,0l-13.53,7.171,2.584-15.22a6.448,6.448,0,0,0-1.83-5.674L591.694,685.2,606.83,683a6.378,6.378,0,0,0,4.8-3.516l6.748-13.817,6.77,13.823a6.376,6.376,0,0,0,4.8,3.51l15.137,2.2Zm-78.152-21.594-24.6-3.577-11-22.469a6.347,6.347,0,0,0-11.419,0l-11,22.469-24.6,3.577a6.431,6.431,0,0,0-3.532,10.944l17.816,17.481-4.221,24.7a6.407,6.407,0,0,0,5.195,7.407,6.314,6.314,0,0,0,4.036-.64l22.014-11.646,22.012,11.646a6.345,6.345,0,0,0,8.6-2.695,6.453,6.453,0,0,0,.638-4.072l-4.221-24.7,17.815-17.481a6.447,6.447,0,0,0,.12-9.069A6.35,6.35,0,0,0,555.994,674.362Zm-25.568,21.59a6.446,6.446,0,0,0-1.832,5.686l2.6,15.212-13.55-7.171a6.318,6.318,0,0,0-5.921,0l-13.548,7.171,2.6-15.212a6.448,6.448,0,0,0-1.831-5.686L487.982,685.2l15.124-2.2a6.376,6.376,0,0,0,4.8-3.51l6.777-13.837,6.777,13.837a6.376,6.376,0,0,0,4.8,3.51l15.124,2.2Zm231.694-21.59-24.6-3.577-11-22.469a6.347,6.347,0,0,0-11.419,0l-11,22.469-24.6,3.577a6.43,6.43,0,0,0-3.532,10.944l17.815,17.481-4.221,24.7a6.407,6.407,0,0,0,5.195,7.407,6.316,6.316,0,0,0,4.036-.64l22.013-11.646,22.013,11.646a6.343,6.343,0,0,0,8.6-2.7,6.447,6.447,0,0,0,.636-4.066l-4.221-24.7,17.816-17.481a6.447,6.447,0,0,0,.12-9.069,6.335,6.335,0,0,0-3.652-1.875h0.007Zm-25.568,21.59a6.449,6.449,0,0,0-1.832,5.686l2.6,15.212-13.549-7.171a6.324,6.324,0,0,0-5.921,0L704.3,716.85l2.6-15.212a6.446,6.446,0,0,0-1.832-5.686L694.11,685.2l15.124-2.2a6.376,6.376,0,0,0,4.8-3.51l6.777-13.837,6.778,13.837a6.376,6.376,0,0,0,4.8,3.51l15.124,2.2Zm-140.5-62.039a6.438,6.438,0,0,0,2.534-6.272l-4.193-24.7,17.79-17.485a6.448,6.448,0,0,0,.114-9.07,6.346,6.346,0,0,0-3.65-1.872l-24.592-3.578-10.972-22.4a6.383,6.383,0,0,0-11.417-.009l-11.007,22.44-24.6,3.562a6.422,6.422,0,0,0-3.536,10.929l17.79,17.484-4.193,24.7a6.408,6.408,0,0,0,5.2,7.4,6.31,6.31,0,0,0,4.032-.644l22.011-11.646L589.348,634.4a6.332,6.332,0,0,0,6.7-.486h0Zm-25.72-24.083a6.318,6.318,0,0,0-5.921,0l-13.566,7.179,2.585-15.229a6.445,6.445,0,0,0-1.83-5.673L540.657,585.35l15.137-2.2a6.372,6.372,0,0,0,4.8-3.512l6.769-13.821,6.749,13.816a6.372,6.372,0,0,0,4.8,3.517l15.139,2.2-10.942,10.755a6.446,6.446,0,0,0-1.83,5.675L583.862,617Zm128.157,24.078a6.434,6.434,0,0,0,2.533-6.271l-4.193-24.7,17.79-17.487a6.445,6.445,0,0,0,.11-9.068,6.352,6.352,0,0,0-3.646-1.869l-24.6-3.578-11-22.411a6.384,6.384,0,0,0-11.418.011l-10.972,22.435L628.5,574.528a6.422,6.422,0,0,0-3.536,10.929l17.79,17.484-4.193,24.7a6.407,6.407,0,0,0,5.209,7.4,6.336,6.336,0,0,0,4.025-.642l21.979-11.646L691.787,634.4A6.323,6.323,0,0,0,698.489,633.908Zm-25.754-24.082a6.324,6.324,0,0,0-5.921,0L653.285,617l2.583-15.222a6.441,6.441,0,0,0-1.833-5.668L643.094,585.35l15.136-2.2a6.371,6.371,0,0,0,4.8-3.517l6.749-13.816,6.769,13.821a6.375,6.375,0,0,0,4.8,3.512l15.136,2.2-10.938,10.755a6.448,6.448,0,0,0-1.831,5.673l2.586,15.229Z" transform="translate(-467.906 -545)"/>
</svg>
