<?xml version="1.0" encoding="utf-8"?>
<!-- Generator: Adobe Illustrator 19.2.0, SVG Export Plug-In . SVG Version: 6.00 Build 0)  -->
<svg version="1.1" id="Camada_1" xmlns="http://www.w3.org/2000/svg" xmlns:xlink="http://www.w3.org/1999/xlink" x="0px" y="0px"
	 viewBox="0 0 536 503.7" style="enable-background:new 0 0 536 503.7;" xml:space="preserve">
<style type="text/css">
	.st0{fill:#93DDFC;}
	.st1{fill:#FFFFFF;stroke:#54596E;stroke-width:4;stroke-miterlimit:10;}
	.st2{fill:#FFFFFF;}
	.st3{fill:none;}
	.st4{fill:#FFD815;stroke:#54596E;stroke-width:4;stroke-miterlimit:10;}
	.st5{fill:none;stroke:#54596E;stroke-width:4;stroke-miterlimit:10;}
	.st6{fill:#66D7FF;stroke:#54596E;stroke-width:4;stroke-miterlimit:10;}
	.st7{fill:#EDEDED;stroke:#54596E;stroke-width:4;stroke-miterlimit:10;}
	.st8{fill:#DAEC6E;stroke:#54596E;stroke-width:4;stroke-miterlimit:10;}
	.st9{fill:#DAEC6E;}
	.st10{fill:#C5D14B;}
</style>
<circle class="st0" cx="293.1" cy="273" r="230.7"/>
<rect x="57.9" y="4.9" class="st1" width="156.5" height="108.9"/>
<path class="st2" d="M310.1,329.6h-76.5c-6.6,0-11.9-5.3-11.9-11.9V139.5c0-6.6,5.3-11.9,11.9-11.9h76.5c6.6,0,11.9,5.3,11.9,11.9
	v178.2C321.9,324.3,316.6,329.6,310.1,329.6z"/>
<rect x="189.8" y="374.6" class="st3" width="100.9" height="9.8"/>
<path class="st4" d="M323.8,189.5l8.4-2c4.9-1.2,10,1.9,11.2,6.8l0.3,1.2c1.2,4.9-1.9,10-6.8,11.2l-13.4,2.9"/>
<path class="st1" d="M290.7,384.7v-8.1c0-1.1-0.9-2.1-2.1-2.1H191c-1.1,0-2.1,0.9-2.1,2.1v8.1"/>
<path class="st5" d="M322.8,216.5v-79.4c0-5.4-4.4-9.9-9.9-9.9h-82c-5.4,0-9.9,4.4-9.9,9.9v103.4"/>
<path class="st5" d="M221.1,242.7v77.4c0,5.4,4.4,9.9,9.9,9.9h82c5.4,0,9.9-4.4,9.9-9.9V216.7"/>
<rect x="232.2" y="150.2" class="st6" width="79" height="156.5"/>
<line class="st5" x1="268.2" y1="138.5" x2="281.5" y2="138.5"/>
<line class="st5" x1="1.9" y1="376.9" x2="4.1" y2="376.9"/>
<line class="st5" x1="141.4" y1="376.9" x2="143.6" y2="376.9"/>
<line class="st5" x1="129.8" y1="376.9" x2="133.2" y2="376.9"/>
<line class="st5" x1="118.1" y1="376.9" x2="121.5" y2="376.9"/>
<line class="st5" x1="106.3" y1="376.9" x2="109.7" y2="376.9"/>
<line class="st5" x1="94.6" y1="376.9" x2="98" y2="376.9"/>
<line class="st5" x1="82.8" y1="376.9" x2="86.2" y2="376.9"/>
<line class="st5" x1="71.1" y1="376.9" x2="74.5" y2="376.9"/>
<line class="st5" x1="59.3" y1="376.9" x2="62.7" y2="376.9"/>
<line class="st5" x1="47.6" y1="376.9" x2="51" y2="376.9"/>
<line class="st5" x1="35.8" y1="376.9" x2="39.2" y2="376.9"/>
<line class="st5" x1="24.1" y1="376.9" x2="27.5" y2="376.9"/>
<line class="st5" x1="12.3" y1="376.9" x2="15.8" y2="376.9"/>
<line class="st5" x1="40.7" y1="208" x2="79.2" y2="208"/>
<line class="st5" x1="18.2" y1="208" x2="29.5" y2="208"/>
<line class="st5" x1="34.4" y1="191.7" x2="45.6" y2="191.7"/>
<line class="st5" x1="57.9" y1="191.7" x2="83.8" y2="191.7"/>
<line class="st5" x1="268.3" y1="318" x2="275.2" y2="318"/>
<path class="st4" d="M330.5,234.3l-10,2.4c-4.9,1.2-10-1.9-11.2-6.8v0c-1.2-4.9,1.9-10,6.8-11.2l10-2.4c4.9-1.2,10,1.9,11.2,6.8v0
	C338.5,228,335.5,233.1,330.5,234.3z"/>
<path class="st4" d="M330.5,261.3l-11.8,2.9c-4.9,1.2-10-1.9-11.2-6.8l-0.3-1.2c-1.2-4.9,1.9-10,6.8-11.2l11.8-2.9
	c4.9-1.2,10,1.9,11.2,6.8l0.3,1.2C338.5,255,335.5,260.1,330.5,261.3z"/>
<path class="st4" d="M324.9,291.8l-8.4,2c-4.9,1.2-10-1.9-11.2-6.8l-0.3-1.2c-1.2-4.9,1.9-10,6.8-11.2l8.4-2
	c4.9-1.2,10,1.9,11.2,6.8l0.3,1.2C332.9,285.6,329.8,290.6,324.9,291.8z"/>
<polygon class="st4" points="276.9,374.6 276.9,359.7 305.7,329.7 237.3,329.9 218.1,374.4 "/>
<path class="st4" d="M250.6,242.3h-38l-17.3,37.5l-0.5,94.5l32.5,0.2c0,0,25.8-18,10.5-64.8c0,0-4-12.8-16.5-21.5l7-19.5
	C228.2,268.7,255.7,273.3,250.6,242.3z"/>
<rect x="71.6" y="17.5" class="st6" width="129.1" height="83.6"/>
<line class="st5" x1="464.3" y1="88.3" x2="477.5" y2="88.3"/>
<line class="st5" x1="411.7" y1="38.1" x2="411.7" y2="24.9"/>
<line class="st5" x1="368.7" y1="63" x2="357.6" y2="55.7"/>
<line class="st5" x1="458.8" y1="63" x2="469.9" y2="55.7"/>
<line class="st5" x1="349.3" y1="88.3" x2="362.5" y2="88.3"/>
<line class="st5" x1="446.3" y1="32.7" x2="439" y2="43.7"/>
<line class="st5" x1="378.6" y1="32.7" x2="385.9" y2="43.7"/>
<path class="st4" d="M393.5,142.1l-0.7-11.3c0,0-4.1-6.7-9.1-14.3c-5.3-8.1-10.3-26.8-2.2-39.3c14.9-23.1,48.8-23.5,62.6-1.4
	c7.9,12.7,6.7,29.3-2.1,41.7c-3.5,5-6.3,10.3-9.5,14.5l-0.4,10.3L393.5,142.1z"/>
<path class="st7" d="M397.7,165.2l30.1-0.1c0,0,2.3-1.9,2.3-2.5c0-0.5,2.5-2.7,3.1-2.7s2.2-5.7,0.1-7.7c0,0,1.4-8.8-1-9.6l-38.8-0.3
	c0,0-2.7,7.7-0.8,10.7c0,0-1.9,4.2-0.1,6.2c0,0,1.8,1.5,1.8,2.5S396,165.1,397.7,165.2z"/>
<line class="st7" x1="413" y1="152.9" x2="392.2" y2="153.1"/>
<polyline class="st5" points="403.2,142.1 397.4,105.1 401.4,105.1 403.2,102.3 406.7,108.5 409,103.7 412.5,107.6 415.5,102.3 
	419.1,107.1 422.2,102.5 424.9,106.3 428,105.2 423,142.3 "/>
<circle class="st8" cx="84.7" cy="299.8" r="30.5"/>
<circle class="st1" cx="84" cy="291.2" r="11.3"/>
<path class="st1" d="M64,320.6l-0.3-9.7c0,0-0.5-8.1,13.1-8.7c13.6-0.6,19.8,1.1,19.8,1.1s7.9,1.1,7.9,8.3c0,7.2,0,10.4,0,10.4
	s-5,8.2-20.3,7.5C69,328.9,64,320.6,64,320.6z"/>
<line class="st1" x1="73.4" y1="327.5" x2="73.2" y2="316"/>
<line class="st1" x1="95.8" y1="327.5" x2="95.6" y2="316"/>
<polyline class="st5" points="473.8,202.4 437,220.8 473.8,242.5 "/>
<circle class="st1" cx="473.8" cy="202.4" r="7.2"/>
<circle class="st1" cx="473.8" cy="242.5" r="7.2"/>
<circle class="st1" cx="436.9" cy="222.3" r="7.2"/>
<path class="st1" d="M114.4,175.2h27.1c1.5,0,2.7,1.2,2.7,2.7v18.7c0,1.5-1.2,2.7-2.7,2.7H138l-0.2,6.8l-8.2-6.8h-15.2
	c-1.5,0-2.7-1.2-2.7-2.7v-18.7C111.7,176.4,112.9,175.2,114.4,175.2z"/>
<path class="st1" d="M125.1,190.1H97.9c-1.5,0-2.7,1.2-2.7,2.7v18.7c0,1.5,1.2,2.7,2.7,2.7h3.5l0.2,6.8l8.2-6.8h15.2
	c1.5,0,2.7-1.2,2.7-2.7v-18.7C127.8,191.3,126.6,190.1,125.1,190.1z"/>
<polygon class="st8" points="71.7,64.3 95.3,34.9 115.5,60.1 128.8,43.2 151.5,71.9 200.3,72.3 200.3,100.9 71.6,100.7 "/>
<circle class="st4" cx="172" cy="42.2" r="11"/>
<path class="st5" d="M428.9,408.5c4.1-0.1,7.1-14.2,12.3-14.2c4.8,0,9.5,11.7,12.6,13.8c1.2,0.8,2.9,0.2,3.1,0.1
	c3.7-2,6.7-13.9,11.6-13.9c5.2,0,10,14.1,13.4,14.1"/>
<path class="st5" d="M456,408.5c4.1-0.1,7.1-14.2,12.3-14.2c4.8,0,9.5,11.7,12.6,13.8c1.2,0.8,2.9,0.2,3.1,0.1
	c3.7-2,6.7-13.9,11.6-13.9c5.2,0,10,14.1,13.4,14.1"/>
<path class="st9" d="M239.9,497.6c0,0-15.8-4-29.9-9.2c-9.3-3.5-24.3-11.1-24.3-11.1v-91.9h54.2V497.6z"/>
<path class="st10" d="M294,503.7c0,0-11.1,0.1-27.7-1.6c-10.4-1.1-26.4-4.6-26.4-4.6V385.9H294V503.7z"/>
<path class="st5" d="M294.9,503.2V386.6c0-1.2-1-2.2-2.2-2.2H186.9c-1.2,0-2.2,1-2.2,2.2v90.1"/>
<circle class="st1" cx="277.4" cy="408.3" r="5.8"/>
<line class="st5" x1="359.1" y1="438.8" x2="367.7" y2="438.8"/>
<line class="st5" x1="324.6" y1="438.8" x2="333.2" y2="438.8"/>
<line class="st5" x1="353.2" y1="450.4" x2="357.9" y2="457.6"/>
<line class="st5" x1="334.5" y1="421.4" x2="339.1" y2="428.6"/>
<line class="st5" x1="337.7" y1="450.4" x2="333" y2="457.6"/>
<line class="st5" x1="356.5" y1="421.4" x2="351.8" y2="428.6"/>
<polygon class="st4" points="86.1,90 48.2,90 48.2,119.5 86.1,119.5 86.1,129.9 114.6,104.8 86.1,79.5 "/>
<circle class="st1" cx="428.8" cy="346.5" r="35"/>
<circle class="st7" cx="428.8" cy="346.5" r="27.2"/>
<line class="st5" x1="406.4" y1="333" x2="422.1" y2="348.7"/>
<line class="st5" x1="410.1" y1="326.8" x2="435.3" y2="352"/>
<rect x="463.6" y="341.3" class="st5" width="72.6" height="10.4"/>
<rect x="469.5" y="337.6" class="st6" width="61.3" height="17.8"/>
</svg>
