<?xml version="1.0" encoding="utf-8"?>
<!-- Generator: Adobe Illustrator 19.2.0, SVG Export Plug-In . SVG Version: 6.00 Build 0)  -->
<svg version="1.1" id="Camada_1" xmlns="http://www.w3.org/2000/svg" xmlns:xlink="http://www.w3.org/1999/xlink" x="0px" y="0px"
	 viewBox="0 0 536 503.7" style="enable-background:new 0 0 536 503.7;" xml:space="preserve">
<style type="text/css">
	.st0{fill:#FF8D93;}
	.st1{fill:#FFD815;stroke:#54596E;stroke-width:4;stroke-miterlimit:10;}
	.st2{fill:#EDEDED;stroke:#54596E;stroke-width:4;stroke-miterlimit:10;}
	.st3{fill:#FFFFFF;}
	.st4{fill:none;}
	.st5{fill:#FFFFFF;stroke:#54596E;stroke-width:4;stroke-miterlimit:10;}
	.st6{fill:none;stroke:#54596E;stroke-width:4;stroke-miterlimit:10;}
	.st7{fill:#66D7FF;stroke:#54596E;stroke-width:4;stroke-miterlimit:10;}
	.st8{fill:#DAEC6E;stroke:#54596E;stroke-width:4;stroke-miterlimit:10;}
	.st9{fill:#DAEC6E;}
	.st10{fill:#C5D14B;}
	.st11{fill:#7BCDFF;stroke:#54596E;stroke-width:4;stroke-miterlimit:10;}
</style>
<circle class="st0" cx="264.5" cy="273" r="230.7"/>
<rect x="271.5" y="53.1" class="st1" width="124.8" height="15.1"/>
<rect x="396" y="53.1" class="st2" width="12.1" height="15.1"/>
<polygon class="st2" points="272,68.2 248.4,61.6 248.4,59.9 272,53.1 "/>
<rect x="408.4" y="53.1" class="st1" width="9.5" height="15.1"/>
<path class="st3" d="M281.5,329.6H205c-6.6,0-11.9-5.3-11.9-11.9V139.5c0-6.6,5.3-11.9,11.9-11.9h76.5c6.6,0,11.9,5.3,11.9,11.9
	v178.2C293.4,324.3,288.1,329.6,281.5,329.6z"/>
<rect x="161.3" y="374.6" class="st4" width="100.9" height="9.8"/>
<path class="st1" d="M295.3,189.5l8.4-2c4.9-1.2,10,1.9,11.2,6.8l0.3,1.2c1.2,4.9-1.9,10-6.8,11.2l-13.4,2.9"/>
<path class="st5" d="M262.1,384.7v-8.1c0-1.1-0.9-2.1-2.1-2.1h-97.6c-1.1,0-2.1,0.9-2.1,2.1v8.1"/>
<path class="st6" d="M294.3,216.5v-79.4c0-5.4-4.4-9.9-9.9-9.9h-82c-5.4,0-9.9,4.4-9.9,9.9v103.4"/>
<path class="st6" d="M192.5,242.7v77.4c0,5.4,4.4,9.9,9.9,9.9h82c5.4,0,9.9-4.4,9.9-9.9V216.7"/>
<rect x="203.7" y="150.2" class="st7" width="79" height="156.5"/>
<line class="st6" x1="239.7" y1="138.5" x2="253" y2="138.5"/>
<line class="st6" x1="492.5" y1="277.4" x2="505.8" y2="277.4"/>
<line class="st6" x1="481.6" y1="258.5" x2="483.8" y2="258.5"/>
<line class="st6" x1="491" y1="258.5" x2="494.4" y2="258.5"/>
<line class="st6" x1="501.3" y1="258.5" x2="504.7" y2="258.5"/>
<line class="st6" x1="511.5" y1="258.5" x2="514.9" y2="258.5"/>
<line class="st6" x1="313" y1="408.4" x2="315.2" y2="408.4"/>
<line class="st6" x1="452.5" y1="408.4" x2="454.7" y2="408.4"/>
<line class="st6" x1="441" y1="408.4" x2="444.4" y2="408.4"/>
<line class="st6" x1="429.2" y1="408.4" x2="432.6" y2="408.4"/>
<line class="st6" x1="417.5" y1="408.4" x2="420.9" y2="408.4"/>
<line class="st6" x1="405.7" y1="408.4" x2="409.1" y2="408.4"/>
<line class="st6" x1="394" y1="408.4" x2="397.4" y2="408.4"/>
<line class="st6" x1="382.2" y1="408.4" x2="385.7" y2="408.4"/>
<line class="st6" x1="370.5" y1="408.4" x2="373.9" y2="408.4"/>
<line class="st6" x1="358.7" y1="408.4" x2="362.2" y2="408.4"/>
<line class="st6" x1="347" y1="408.4" x2="350.4" y2="408.4"/>
<line class="st6" x1="335.3" y1="408.4" x2="338.7" y2="408.4"/>
<line class="st6" x1="323.5" y1="408.4" x2="326.9" y2="408.4"/>
<line class="st6" x1="449.5" y1="277.4" x2="483.5" y2="277.4"/>
<line class="st6" x1="61.4" y1="352.7" x2="99.9" y2="352.7"/>
<line class="st6" x1="38.9" y1="352.7" x2="50.2" y2="352.7"/>
<line class="st6" x1="55" y1="336.5" x2="66.3" y2="336.5"/>
<line class="st6" x1="78.5" y1="336.5" x2="104.5" y2="336.5"/>
<line class="st6" x1="239.7" y1="318" x2="246.7" y2="318"/>
<path class="st1" d="M302,234.3l-10,2.4c-4.9,1.2-10-1.9-11.2-6.8v0c-1.2-4.9,1.9-10,6.8-11.2l10-2.4c4.9-1.2,10,1.9,11.2,6.8v0
	C310,228,306.9,233.1,302,234.3z"/>
<path class="st1" d="M302,261.3l-11.8,2.9c-4.9,1.2-10-1.9-11.2-6.8l-0.3-1.2c-1.2-4.9,1.9-10,6.8-11.2l11.8-2.9
	c4.9-1.2,10,1.9,11.2,6.8l0.3,1.2C310,255,306.9,260.1,302,261.3z"/>
<path class="st1" d="M296.3,291.8l-8.4,2c-4.9,1.2-10-1.9-11.2-6.8l-0.3-1.2c-1.2-4.9,1.9-10,6.8-11.2l8.4-2
	c4.9-1.2,10,1.9,11.2,6.8l0.3,1.2C304.3,285.6,301.3,290.6,296.3,291.8z"/>
<polygon class="st1" points="248.3,374.6 248.3,359.7 277.1,329.7 208.8,329.9 189.6,374.4 "/>
<path class="st1" d="M222.1,242.3h-38l-17.3,37.5l-0.5,94.5l32.5,0.2c0,0,25.8-18,10.5-64.8c0,0-4-12.8-16.5-21.5l7-19.5
	C199.7,268.7,227.2,273.3,222.1,242.3z"/>
<circle class="st8" cx="402.2" cy="268.8" r="30.5"/>
<circle class="st5" cx="401.5" cy="260.2" r="11.3"/>
<path class="st5" d="M381.5,289.6l-0.3-9.7c0,0-0.5-8.1,13.1-8.7c13.6-0.6,19.8,1.1,19.8,1.1s7.9,1.1,7.9,8.3c0,7.2,0,10.4,0,10.4
	s-5,8.2-20.3,7.5C386.5,297.9,381.5,289.6,381.5,289.6z"/>
<line class="st5" x1="390.9" y1="296.5" x2="390.7" y2="285"/>
<line class="st5" x1="413.3" y1="296.5" x2="413.2" y2="285"/>
<path class="st5" d="M379.5,347.2h27.1c1.5,0,2.7,1.2,2.7,2.7v18.7c0,1.5-1.2,2.7-2.7,2.7h-3.5l-0.2,6.8l-8.2-6.8h-15.2
	c-1.5,0-2.7-1.2-2.7-2.7v-18.7C376.8,348.4,378,347.2,379.5,347.2z"/>
<path class="st5" d="M390.1,362.1H363c-1.5,0-2.7,1.2-2.7,2.7v18.7c0,1.5,1.2,2.7,2.7,2.7h3.5l0.2,6.8l8.2-6.8h15.2
	c1.5,0,2.7-1.2,2.7-2.7v-18.7C392.9,363.4,391.6,362.1,390.1,362.1z"/>
<path class="st6" d="M455.8,150.6c4.1-0.1,7.1-14.2,12.3-14.2c4.8,0,9.5,11.7,12.6,13.8c1.2,0.8,2.9,0.2,3.1,0.1
	c3.7-2,6.7-13.9,11.6-13.9c5.2,0,10,14.1,13.4,14.1"/>
<path class="st6" d="M483,150.6c4.1-0.1,7.1-14.2,12.3-14.2c4.8,0,9.5,11.7,12.6,13.8c1.2,0.8,2.9,0.2,3.1,0.1
	c3.7-2,6.7-13.9,11.6-13.9c5.2,0,10,14.1,13.4,14.1"/>
<path class="st9" d="M211.3,497.6c0,0-15.8-4-29.9-9.2c-9.3-3.5-24.3-11.1-24.3-11.1v-91.9h54.2V497.6z"/>
<path class="st10" d="M265.5,503.7c0,0-11.1,0.1-27.7-1.6c-10.4-1.1-26.4-4.6-26.4-4.6V385.9h54.2V503.7z"/>
<path class="st6" d="M266.3,503.2V386.6c0-1.2-1-2.2-2.2-2.2H158.3c-1.2,0-2.2,1-2.2,2.2v90.1"/>
<circle class="st5" cx="248.9" cy="408.3" r="5.8"/>
<polygon class="st1" points="400,110.9 410.1,131.3 432.6,134.5 416.3,150.4 420.2,172.8 400,162.2 379.9,172.8 383.8,150.4 
	367.5,134.5 390,131.3 "/>
<polygon class="st5" points="137.3,122.6 66.3,122.6 66.3,27 119.2,27 137.3,41.3 "/>
<polygon class="st11" points="134.1,40.7 118.9,40.5 118.9,28.7 120.6,28.5 134.1,39.2 "/>
<polygon class="st1" points="149.6,105.4 149.6,67.5 120.1,67.5 120.1,105.4 109.6,105.4 134.7,133.8 160,105.4 "/>
<rect x="122.5" y="164.9" class="st5" width="108" height="60.9"/>
<line class="st6" x1="77.1" y1="200.4" x2="115.6" y2="200.4"/>
<line class="st6" x1="54.6" y1="200.4" x2="65.8" y2="200.4"/>
<line class="st6" x1="70.7" y1="184.1" x2="81.9" y2="184.1"/>
<line class="st6" x1="94.2" y1="184.1" x2="120.2" y2="184.1"/>
<polyline class="st6" points="124.9,224.4 168.2,188.8 186.9,187.2 228.9,224.7 "/>
<path class="st5" d="M179.7,197.9c-2,0.6-6.1,0.2-8.1-0.4c-1.8-0.6-6.2-3.7-6.2-3.7L124.9,167l2.4-1.6h96.8l3.3,2l-40.3,26.4
	C187.1,193.8,181.7,197.3,179.7,197.9z"/>
</svg>
