<?xml version="1.0" encoding="utf-8"?>
<!-- Generator: Adobe Illustrator 19.2.0, SVG Export Plug-In . SVG Version: 6.00 Build 0)  -->
<svg version="1.1" id="Camada_1" xmlns="http://www.w3.org/2000/svg" xmlns:xlink="http://www.w3.org/1999/xlink" x="0px" y="0px"
	 viewBox="0 0 607.6 512.3" style="enable-background:new 0 0 607.6 512.3;" xml:space="preserve">
<style type="text/css">
	.st0{fill:#FF8D93;}
	.st1{fill:#FFD815;stroke:#54596E;stroke-width:4;stroke-miterlimit:10;}
	.st2{fill:#EDEDED;stroke:#54596E;stroke-width:4;stroke-miterlimit:10;}
	.st3{fill:#FFFFFF;}
	.st4{fill:none;}
	.st5{fill:#FFFFFF;stroke:#54596E;stroke-width:4;stroke-miterlimit:10;}
	.st6{fill:none;stroke:#54596E;stroke-width:4;stroke-miterlimit:10;}
	.st7{fill:#66D7FF;stroke:#54596E;stroke-width:4;stroke-miterlimit:10;}
	.st8{fill:#DAEC6E;stroke:#54596E;stroke-width:4;stroke-miterlimit:10;}
	.st9{fill:#DAEC6E;}
	.st10{fill:#C5D14B;}
	.st11{fill:#7BCDFF;stroke:#54596E;stroke-width:4;stroke-miterlimit:10;}
	.st12{fill:#54596E;}
</style>
<circle class="st9" cx="362.3" cy="279.7" r="232.6"/>
<circle class="st5" cx="547.3" cy="169.1" r="60.3"/>
<path class="st3" d="M379.5,336.7h-77.3c-6.6,0-11.9-5.3-11.9-11.9V145c0-6.6,5.3-11.9,11.9-11.9h77.3c6.6,0,11.9,5.3,11.9,11.9
	v179.9C391.4,331.4,386.1,336.7,379.5,336.7z"/>
<rect x="258.2" y="382.1" class="st4" width="101.8" height="9.9"/>
<path class="st1" d="M393.3,195.5l8.4-2.1c5-1.2,10.1,1.9,11.3,6.9l0.3,1.2c1.2,5-1.9,10.1-6.9,11.3l-13.5,2.9"/>
<path class="st5" d="M359.9,392.3v-8.2c0-1.2-0.9-2.1-2.1-2.1h-98.4c-1.2,0-2.1,0.9-2.1,2.1v8.2"/>
<path class="st6" d="M392.3,222.7v-80c0-5.5-4.5-9.9-9.9-9.9h-82.7c-5.5,0-9.9,4.5-9.9,9.9v104.2"/>
<path class="st6" d="M289.7,249.2v78c0,5.5,4.5,9.9,9.9,9.9h82.7c5.5,0,9.9-4.5,9.9-9.9V222.9"/>
<rect x="301" y="155.9" class="st7" width="79.6" height="157.8"/>
<line class="st6" x1="337.3" y1="144" x2="350.6" y2="144"/>
<line class="st6" x1="62.4" y1="321.8" x2="64.6" y2="321.8"/>
<line class="st6" x1="203" y1="321.8" x2="205.3" y2="321.8"/>
<line class="st6" x1="191.4" y1="321.8" x2="194.9" y2="321.8"/>
<line class="st6" x1="179.6" y1="321.8" x2="183" y2="321.8"/>
<line class="st6" x1="167.7" y1="321.8" x2="171.2" y2="321.8"/>
<line class="st6" x1="155.9" y1="321.8" x2="159.3" y2="321.8"/>
<line class="st6" x1="144" y1="321.8" x2="147.5" y2="321.8"/>
<line class="st6" x1="132.2" y1="321.8" x2="135.6" y2="321.8"/>
<line class="st6" x1="120.4" y1="321.8" x2="123.8" y2="321.8"/>
<line class="st6" x1="108.5" y1="321.8" x2="111.9" y2="321.8"/>
<line class="st6" x1="96.7" y1="321.8" x2="100.1" y2="321.8"/>
<line class="st6" x1="84.8" y1="321.8" x2="88.3" y2="321.8"/>
<line class="st6" x1="73" y1="321.8" x2="76.4" y2="321.8"/>
<line class="st6" x1="110.1" y1="135.7" x2="139.9" y2="135.7"/>
<line class="st6" x1="92.7" y1="135.7" x2="101.4" y2="135.7"/>
<line class="st6" x1="105.2" y1="123.1" x2="113.9" y2="123.1"/>
<line class="st6" x1="123.4" y1="123.1" x2="143.5" y2="123.1"/>
<line class="st6" x1="337.3" y1="325" x2="344.3" y2="325"/>
<path class="st1" d="M400.1,240.6l-10.2,2.5c-4.9,1.2-10-1.9-11.2-6.8l0-0.1c-1.2-4.9,1.9-10,6.8-11.2l10.2-2.5
	c4.9-1.2,10,1.9,11.2,6.8l0,0.1C408.2,234.4,405.1,239.4,400.1,240.6z"/>
<path class="st1" d="M400.1,267.8l-12,2.9c-4.9,1.2-10-1.9-11.2-6.8l-0.3-1.3c-1.2-4.9,1.9-10,6.8-11.2l12-2.9
	c4.9-1.2,10,1.9,11.2,6.8l0.3,1.3C408.2,261.6,405.1,266.6,400.1,267.8z"/>
<path class="st1" d="M394.4,298.6l-8.6,2.1c-4.9,1.2-10-1.9-11.2-6.8l-0.3-1.3c-1.2-4.9,1.9-10,6.8-11.2l8.6-2.1
	c4.9-1.2,10,1.9,11.2,6.8l0.3,1.3C402.4,292.4,399.4,297.4,394.4,298.6z"/>
<polygon class="st1" points="346,382.1 346,367 375,336.8 306.1,337.1 286.7,381.9 "/>
<path class="st1" d="M319.5,248.7h-38.4l-17.5,37.8l-0.5,95.3l32.8,0.3c0,0,26-18.1,10.6-65.3c0,0-4-12.9-16.6-21.7l7.1-19.7
	C296.9,275.4,324.6,279.9,319.5,248.7z"/>
<path class="st9" d="M308.7,506.1c0,0-16-4-30.1-9.3c-9.4-3.5-24.5-11.2-24.5-11.2v-92.6h54.6V506.1z"/>
<path class="st10" d="M363.3,512.3c0,0-11.2,0.1-28-1.6c-10.5-1.1-26.7-4.6-26.7-4.6V393.5h54.6V512.3z"/>
<path class="st6" d="M364.1,511.7V394.2c0-1.2-1-2.3-2.3-2.3H255.2c-1.2,0-2.3,1-2.3,2.3V485"/>
<circle class="st5" cx="346.5" cy="416" r="5.8"/>
<polygon class="st1" points="195.2,232.6 205.3,253.2 228,256.5 211.6,272.5 215.5,295.1 195.2,284.4 174.9,295.1 178.8,272.5 
	162.4,256.5 185,253.2 "/>
<polygon class="st1" points="116.5,232.6 126.7,253.2 149.4,256.5 132.9,272.5 136.8,295.1 116.5,284.4 96.3,295.1 100.1,272.5 
	83.7,256.5 106.4,253.2 "/>
<polygon class="st1" points="36.9,232.6 47,253.2 69.7,256.5 53.3,272.5 57.2,295.1 36.9,284.4 16.6,295.1 20.5,272.5 4.1,256.5 
	26.7,253.2 "/>
<g>
	<line class="st6" x1="584.9" y1="168.8" x2="594.7" y2="168.8"/>
	<line class="st6" x1="546.1" y1="131.8" x2="546.1" y2="122"/>
	<line class="st6" x1="514.2" y1="150.1" x2="506" y2="144.8"/>
	<line class="st6" x1="580.9" y1="150.1" x2="589.1" y2="144.8"/>
	<line class="st6" x1="499.9" y1="168.8" x2="509.7" y2="168.8"/>
	<line class="st6" x1="571.7" y1="127.7" x2="566.3" y2="135.9"/>
	<line class="st6" x1="521.6" y1="127.7" x2="527" y2="135.9"/>
	<line class="st6" x1="548.6" y1="206.4" x2="548.6" y2="216.2"/>
	<line class="st6" x1="580.4" y1="188.1" x2="588.6" y2="193.4"/>
	<line class="st6" x1="513.7" y1="188.1" x2="505.5" y2="193.4"/>
	<line class="st6" x1="523" y1="210.5" x2="528.4" y2="202.3"/>
	<line class="st6" x1="573.1" y1="210.5" x2="567.7" y2="202.3"/>
</g>
<line class="st6" x1="550.2" y1="168.6" x2="568.2" y2="159.9"/>
<line class="st6" x1="545.2" y1="168" x2="524.4" y2="151.3"/>
<circle class="st12" cx="547.3" cy="169.1" r="5"/>
<polygon class="st5" points="228.3,151 164.2,151 153.5,111.3 240.9,111.3 "/>
<line class="st5" x1="171.3" y1="170.4" x2="203.5" y2="170.4"/>
<path class="st6" d="M132.5,94.5l12.1,2.2c0,0,5.2,0.4,7.1,6.9c1.9,6.8,3.4,12.5,3.4,12.5"/>
<circle class="st5" cx="160.4" cy="171.2" r="11.3"/>
<circle class="st5" cx="215.5" cy="171.2" r="11.3"/>
<line class="st5" x1="162.8" y1="160.2" x2="164.5" y2="150.5"/>
<path class="st1" d="M434.7,28.9c-9.6,0.3-16.5,6.3-18.6,8.2c-2-2-9-7.9-18.6-8.2c-11.4-0.4-24,8.1-23.3,23.6
	c0.6,13.2,15.1,30.8,32.3,42.4c0,0,1.4,1,2.1,1.4c2.4,1.5,4.9,3,7.3,4.2h0.2c21-10.7,41-32.5,41.7-48
	C458.7,37,446.2,28.5,434.7,28.9z"/>
<line class="st6" x1="471.3" y1="68.9" x2="485.6" y2="68.9"/>
<line class="st6" x1="414.2" y1="14.5" x2="414.2" y2="0.1"/>
<line class="st6" x1="367.5" y1="41.5" x2="355.4" y2="33.6"/>
<line class="st6" x1="465.4" y1="41.5" x2="477.4" y2="33.6"/>
<line class="st6" x1="346.5" y1="68.9" x2="360.8" y2="68.9"/>
<line class="st6" x1="451.8" y1="8.6" x2="443.9" y2="20.6"/>
<line class="st6" x1="378.3" y1="8.6" x2="386.2" y2="20.6"/>
<path class="st5" d="M468.1,320.2c0,0,20.4-13.9,21.6-21.7c1.2-7.8,1.8-18.8,1.8-18.8s1.5-6.6,7.5-5.7c6,0.9,7.2,11,7.2,11
	s0.6,9.5-0.6,13.7c-1.2,4.2,0.3,9.2,8.7,9.5c5.6,0.2,11.7-0.1,15.1-0.4c1.7-0.1,3.6-0.2,5-0.3c4.5-0.4,11.3,4.3,6,13.5
	c0,0,4,9.3-2.6,14.3c0,0,1.6,11.7-5.8,13.1c0,0-1.6,7.2-7.6,7.2c-6,0-46.8-0.9-46.8-0.9"/>
<rect x="447.3" y="318.7" transform="matrix(0.9636 -0.2673 0.2673 0.9636 -75.7383 135.7551)" class="st5" width="27" height="54.7"/>
<line class="st6" x1="111" y1="418.7" x2="149.8" y2="418.7"/>
<line class="st6" x1="88.3" y1="418.7" x2="99.6" y2="418.7"/>
<line class="st6" x1="104.6" y1="402.4" x2="115.9" y2="402.4"/>
<line class="st6" x1="128.2" y1="402.4" x2="154.4" y2="402.4"/>
<path class="st5" d="M185.3,385.7h27.4c1.5,0,2.7,1.2,2.7,2.7v18.9c0,1.5-1.2,2.7-2.7,2.7h-3.6l-0.2,6.9l-8.3-6.9h-15.3
	c-1.5,0-2.7-1.2-2.7-2.7v-18.9C182.5,386.9,183.8,385.7,185.3,385.7z"/>
<path class="st5" d="M196,400.7h-27.4c-1.5,0-2.7,1.2-2.7,2.7v18.9c0,1.5,1.2,2.7,2.7,2.7h3.6l0.2,6.9l8.3-6.9H196
	c1.5,0,2.7-1.2,2.7-2.7v-18.9C198.7,402,197.5,400.7,196,400.7z"/>
<line class="st6" x1="489.9" y1="460.6" x2="503.2" y2="460.6"/>
<line class="st6" x1="478.9" y1="441.6" x2="481.1" y2="441.6"/>
<line class="st6" x1="531" y1="441.6" x2="533.2" y2="441.6"/>
<line class="st6" x1="488.4" y1="441.6" x2="491.8" y2="441.6"/>
<line class="st6" x1="498.7" y1="441.6" x2="502.1" y2="441.6"/>
<line class="st6" x1="509.1" y1="441.6" x2="512.5" y2="441.6"/>
<line class="st6" x1="519.4" y1="441.6" x2="522.8" y2="441.6"/>
<line class="st6" x1="446.5" y1="460.6" x2="480.8" y2="460.6"/>
</svg>
